<?xml version="1.0" standalone="no"?>
<!DOCTYPE svg PUBLIC "-//W3C//DTD SVG 20010904//EN"
 "http://www.w3.org/TR/2001/REC-SVG-20010904/DTD/svg10.dtd">
<svg version="1.0" xmlns="http://www.w3.org/2000/svg"
 width="1024.000000pt" height="1024.000000pt" viewBox="0 0 1024.000000 1024.000000"
 preserveAspectRatio="xMidYMid meet">

<g transform="translate(0.000000,1024.000000) scale(0.100000,-0.100000)"
fill="#000000" stroke="none">
<path d="M4940 7913 c-361 -25 -688 -116 -1022 -283 -451 -227 -829 -579
-1100 -1027 -176 -291 -292 -612 -351 -973 -2 -14 -5 242 -6 568 l-1 592 -395
0 -395 0 0 340 0 340 -453 -2 -452 -3 -3 -147 -3 -148 306 0 305 0 0 -540 0
-540 -47 -1 c-27 -1 -163 -2 -303 -3 l-255 -1 -3 -152 -3 -153 456 0 455 0 0
355 0 355 247 -2 248 -3 3 -1217 2 -1218 -250 0 -250 0 0 345 0 345 -455 0
-455 0 0 -150 0 -150 305 0 305 0 0 -530 0 -530 -305 0 -306 0 3 -157 3 -158
453 -3 452 -2 0 335 0 335 396 0 395 0 -3 622 c-2 342 0 602 4 578 4 -25 14
-90 23 -145 94 -597 428 -1188 900 -1593 218 -187 546 -381 809 -477 213 -78
500 -137 763 -157 259 -19 597 15 854 87 325 92 682 278 954 499 108 89 317
300 405 411 284 357 485 817 569 1300 l19 110 1 -617 1 -618 400 0 400 0 0
-335 0 -335 460 0 460 0 0 160 0 160 -310 0 -310 0 0 530 0 530 310 0 310 0 0
150 0 150 -460 0 -460 0 0 -345 0 -345 -255 0 -255 0 0 1220 0 1220 255 0 255
0 0 -355 0 -355 460 0 461 0 -3 153 -3 152 -115 1 c-63 1 -202 2 -307 3 l-193
1 0 540 0 540 310 0 310 0 0 150 0 150 -460 0 -460 0 0 -340 0 -340 -400 0
-400 0 -1 -582 c-1 -378 -4 -565 -10 -533 -58 321 -130 541 -264 805 -292 572
-824 1043 -1440 1275 -316 119 -762 183 -1105 158z m345 -293 c470 -39 882
-199 1270 -494 103 -78 319 -288 402 -391 259 -321 429 -706 500 -1130 27
-168 25 -535 -6 -705 -107 -600 -392 -1115 -823 -1485 -262 -225 -605 -407
-924 -490 -209 -54 -330 -69 -584 -69 -259 -1 -369 11 -581 64 -928 231 -1635
1022 -1784 1995 -22 145 -30 409 -16 540 34 310 119 592 261 863 453 862 1358
1378 2285 1302z"/>
<path d="M4598 7229 c-10 -5 -18 -16 -18 -24 0 -7 63 -91 140 -187 110 -136
140 -179 140 -203 0 -18 -45 -123 -114 -265 -62 -129 -128 -269 -145 -310 -43
-101 -56 -119 -99 -137 -20 -8 -169 -71 -331 -140 -165 -71 -312 -127 -335
-130 -40 -3 -46 1 -241 157 -110 88 -211 163 -224 167 -29 7 -45 -9 -153 -162
-77 -108 -159 -221 -219 -300 -65 -86 -86 -146 -99 -280 -22 -219 4 -436 76
-654 51 -152 76 -191 187 -297 77 -73 105 -94 127 -94 25 0 46 21 155 154 69
85 133 157 141 160 35 13 70 2 231 -73 92 -44 283 -131 423 -195 191 -87 262
-125 283 -149 16 -18 98 -167 183 -332 116 -225 154 -308 154 -336 0 -34 -10
-45 -142 -171 -79 -74 -153 -140 -165 -146 -46 -25 -168 -3 -404 73 -59 19
-126 37 -150 40 l-44 6 41 -38 c118 -109 455 -231 829 -299 121 -22 455 -30
582 -14 203 25 457 94 593 162 95 48 94 51 -44 245 -64 88 -124 164 -133 168
-10 3 -129 15 -265 26 -296 23 -453 44 -485 64 -34 22 -60 68 -197 344 -94
188 -123 254 -119 275 3 14 59 108 124 209 257 395 409 648 409 681 0 7 -19
18 -41 25 -53 16 -44 25 -201 -204 -315 -459 -423 -608 -448 -617 -31 -12 -42
-7 -450 179 -168 77 -320 145 -338 152 -18 8 -42 25 -52 39 -35 44 -25 201 35
557 46 268 61 305 141 334 20 7 174 73 342 147 169 74 316 134 327 134 14 0
106 -87 284 -270 145 -149 275 -277 290 -284 21 -11 103 -11 446 -4 255 6 431
14 449 21 30 11 53 55 282 534 71 148 77 121 -88 370 -79 120 -175 267 -213
326 -113 175 -119 182 -161 195 -119 35 -488 55 -740 39 l-130 -9 -140 134
c-145 140 -238 218 -257 218 -7 0 -20 -5 -29 -11z"/>
<path d="M6118 7128 c-9 -7 -27 -49 -39 -92 l-21 -79 59 -86 c33 -47 131 -192
218 -321 210 -312 229 -336 278 -367 78 -49 464 -243 484 -243 11 0 27 7 34
16 41 50 -126 394 -312 642 -175 233 -381 414 -572 502 -81 38 -108 44 -129
28z"/>
<path d="M7163 5712 c-16 -27 -18 -62 -18 -413 1 -360 2 -386 20 -424 26 -53
55 -54 72 -4 24 76 36 211 37 434 1 304 -19 426 -71 433 -16 2 -28 -5 -40 -26z"/>
<path d="M6125 5269 c-9 -13 70 -168 227 -447 106 -187 120 -217 115 -247 -3
-19 -84 -169 -180 -332 -269 -462 -277 -476 -277 -510 0 -24 27 -68 112 -188
62 -86 120 -161 130 -166 27 -14 72 9 168 87 247 199 482 476 619 729 62 114
111 243 111 292 0 31 -67 323 -79 342 -6 9 -61 -14 -204 -85 -174 -87 -199
-97 -224 -88 -20 7 -52 46 -118 145 -208 313 -304 438 -356 465 -33 17 -36 17
-44 3z"/>
<path d="M3295 4206 c-37 -55 6 -180 113 -331 73 -103 134 -167 223 -235 81
-61 116 -77 144 -66 12 4 -3 23 -55 73 -129 121 -250 285 -350 475 l-58 110
-17 -26z"/>
</g>
</svg>
