<svg width="24" height="24" viewBox="0 0 24 24" fill="none" xmlns="http://www.w3.org/2000/svg">
<path d="M10.8705 7.28997L3.67652 15.5115C2.82752 16.482 3.51752 18 4.80602 18H19.194C19.4824 18.0002 19.7647 17.9173 20.0072 17.7613C20.2497 17.6052 20.442 17.3825 20.5612 17.1199C20.6804 16.8573 20.7213 16.566 20.6792 16.2807C20.637 15.9954 20.5136 15.7284 20.3235 15.5115L13.1295 7.29147C12.9887 7.13036 12.8151 7.00123 12.6203 6.91275C12.4255 6.82428 12.214 6.7785 12 6.7785C11.7861 6.7785 11.5746 6.82428 11.3798 6.91275C11.1849 7.00123 11.0113 7.12886 10.8705 7.28997Z" fill="black"/>
</svg>
